<svg id="eWYp1j9SXDm1" xmlns="http://www.w3.org/2000/svg" xmlns:xlink="http://www.w3.org/1999/xlink" viewBox="0 0 300 300" shape-rendering="geometricPrecision" text-rendering="geometricPrecision"><path d="M240.82158,245.388683c8.638846,13.101146,18.41013,30.459207,18.41013,55.230417c0,.79474.27515,9.37471-.83682,10.0419-3.41822,2.05093-4.16184-6.66489-4.18412-6.6946-2.95197-3.93596-9.34488-2.51047-13.38919-2.51047-26.00393,0-64.88556-33.353249-90.82158-33.353249-29.08832,0-50.29299,36.908839-79.0538,31.679599-9.40393-1.70981,9.63689-50.08974,0-50.08974-10.27997,0-49.95848,45.80673-60.25136,46.74244-3.10585.28235,18.031921-46.74244,18.031921-46.74244s-85.711789-84.736207,5.020947-49.363332s39.362467-14.212925-23.431088-58.587037c21.383139-23.619293,74.612641-28.8235,88.703405-7.531421C102.745937,184.859063,124.253832,149.489906,150,159.195752c23.274904,8.774224,19.065145,22.75984,26.386061,51.046299-5.924924,17.774771,51.495972,34.947585,64.435519,35.146632Z" transform="translate(19.625141-50.329208)" fill="#fa3" stroke="#fa3" stroke-width="0.6"/></svg>
